<?xml version="1.0" encoding="utf-8"?>
<!-- Generator: Adobe Illustrator 19.0.1, SVG Export Plug-In . SVG Version: 6.00 Build 0)  -->
<svg version="1.1" id="Слой_1" xmlns="http://www.w3.org/2000/svg" xmlns:xlink="http://www.w3.org/1999/xlink" x="0px" y="0px"
	 viewBox="0 0 756.2 123.5" style="enable-background:new 0 0 756.2 123.5;" xml:space="preserve">
<g>
	<g>
		<path d="M30,102.1H10.3v12.8h23.1v7.9H0V75.3h33.3v7.9H10.3v11.3H30V102.1z"/>
		<path d="M104.5,91.7l9.3-16.4h11.8l-14.5,23.6l14.9,24h-11.9l-9.6-16.7l-9.6,16.7H83l14.9-24L83.4,75.3h11.8L104.5,91.7z"/>
		<path d="M216.1,100.1c0,4.7-0.9,8.8-2.6,12.3s-4.2,6.3-7.4,8.2c-3.2,1.9-6.9,2.9-11.1,2.9c-4.1,0-7.8-0.9-11.1-2.8
			c-3.2-1.9-5.8-4.6-7.5-8.1c-1.8-3.5-2.7-7.6-2.7-12.1V98c0-4.7,0.9-8.8,2.7-12.4c1.8-3.6,4.3-6.3,7.5-8.2
			c3.2-1.9,6.9-2.9,11.1-2.9c4.2,0,7.8,1,11.1,2.9c3.2,1.9,5.7,4.6,7.5,8.2c1.8,3.6,2.7,7.7,2.7,12.3V100.1z M205.7,98
			c0-5-0.9-8.8-2.8-11.4c-1.9-2.6-4.5-3.9-8-3.9c-3.4,0-6.1,1.3-8,3.8c-1.9,2.6-2.8,6.3-2.8,11.3v2.3c0,4.9,0.9,8.6,2.8,11.3
			c1.9,2.7,4.6,4,8.1,4c3.4,0,6.1-1.3,7.9-3.9c1.9-2.6,2.8-6.3,2.8-11.3V98z"/>
		<path d="M302.9,83.2h-15.3v39.6h-10.3V83.2h-15.1v-7.9h40.6V83.2z"/>
		<path d="M364,122.8h-10.3V75.3H364V122.8z"/>
		<path d="M457,107c-0.4,5.1-2.4,9.1-5.9,12.1s-8.3,4.4-14.1,4.4c-6.4,0-11.4-2.1-15.1-6.2c-3.7-4.1-5.5-9.7-5.5-16.9v-2.9
			c0-4.6,0.8-8.6,2.5-12.1c1.7-3.5,4.1-6.2,7.2-8s6.8-2.8,10.9-2.8c5.8,0,10.4,1.5,13.9,4.4c3.5,2.9,5.5,7.1,6.1,12.4h-10.3
			c-0.3-3.1-1.1-5.3-2.7-6.7c-1.5-1.4-3.9-2.1-7-2.1c-3.4,0-6,1.2-7.7,3.5c-1.7,2.3-2.6,6-2.6,10.9v3.6c0,5.1,0.8,8.9,2.4,11.3
			c1.6,2.4,4.2,3.6,7.7,3.6c3.2,0,5.5-0.7,7.1-2.1c1.6-1.4,2.5-3.5,2.7-6.4H457z"/>
		<path d="M571.3,113h-18l-3.4,9.8H539l18.6-47.6h9.5l18.7,47.6h-10.9L571.3,113z M556.1,105.1h12.5l-6.3-17.8L556.1,105.1z"/>
		<path d="M652.9,105.4h-8.2v17.4h-10.3V75.3H653c5.9,0,10.4,1.3,13.6,3.8c3.2,2.5,4.8,6,4.8,10.6c0,3.2-0.7,5.9-2.2,8.1
			c-1.5,2.2-3.7,3.9-6.7,5.2l10.8,19.4v0.5h-11L652.9,105.4z M644.8,97.5h8.3c2.6,0,4.6-0.6,6-1.9c1.4-1.3,2.1-3,2.1-5.2
			c0-2.2-0.7-4-2-5.3s-3.4-1.9-6.1-1.9h-8.3V97.5z"/>
		<path d="M756.2,83.2H741v39.6h-10.3V83.2h-15.1v-7.9h40.6V83.2z"/>
	</g>
	<g>
		<path d="M209.5,0.4v23.4h9.9V0.4h3.8v23.4h9.8V0.4h3.8v26.2h-31V0.4H209.5z"/>
		<path d="M280.7,14.3c0,2.6-0.5,4.8-1.4,6.7c-0.9,1.9-2.3,3.4-4,4.4s-3.7,1.5-6.1,1.5c-2.3,0-4.3-0.5-6-1.5c-1.7-1-3.1-2.5-4.1-4.3
			c-1-1.9-1.5-4-1.5-6.5v-1.9c0-2.5,0.5-4.7,1.4-6.7s2.3-3.4,4.1-4.4c1.8-1,3.8-1.5,6-1.5c2.3,0,4.3,0.5,6.1,1.5s3.1,2.5,4,4.4
			c0.9,1.9,1.4,4.2,1.4,6.7V14.3z M276.9,12.6c0-3.1-0.7-5.5-2-7.1c-1.4-1.7-3.3-2.5-5.7-2.5c-2.4,0-4.3,0.8-5.6,2.5s-2.1,4-2.1,6.9
			v1.9c0,3,0.7,5.4,2.1,7.1c1.4,1.7,3.3,2.6,5.7,2.6c2.4,0,4.3-0.8,5.7-2.4c1.3-1.6,2-4,2.1-7V12.6z"/>
		<path d="M311.4,15.6L318,0.4h4.4l-10.1,21.8c-0.7,1.4-1.3,2.4-1.9,3c-0.6,0.6-1.3,1-2.1,1.3s-1.8,0.5-3,0.5c-1,0-1.7-0.1-2-0.2
			l0.1-2.7l1.8,0.1c1.4,0,2.4-0.6,3.1-1.8l0.5-0.9l0.7-1.6l-9.8-19.4h4.2L311.4,15.6z"/>
		<path d="M346.8,16.8h-9.6v-2.7h9.6V16.8z"/>
		<path d="M383.6,3.2h-13.8V11h7.1c3,0,5.3,0.7,7,2.1c1.7,1.4,2.5,3.2,2.5,5.6c0,2.4-0.8,4.2-2.5,5.6s-4,2.1-6.9,2.2h-11V0.4h17.6
			V3.2z M369.8,13.9v9.9h6.9c1.9,0,3.3-0.5,4.4-1.4c1-0.9,1.6-2.1,1.6-3.7c0-1.5-0.5-2.6-1.5-3.5c-1-0.9-2.4-1.3-4.3-1.3H369.8z"/>
		<path d="M422.5,19.7h-12l-2.7,6.8h-3.9l10.9-26.2h3.3l11,26.2h-3.9L422.5,19.7z M411.7,16.9h9.7l-4.9-12.2L411.7,16.9z"/>
		<path d="M470.2,0.4v26.2h-3.8V3.2h-10.3l-0.5,10.4c-0.2,3.5-0.6,6.1-1.2,7.8c-0.6,1.8-1.4,3-2.6,3.9c-1.1,0.8-2.6,1.2-4.5,1.3
			h-1.2v-2.8l0.8,0c1.2-0.1,2.2-0.4,2.8-1.1c0.7-0.6,1.2-1.7,1.5-3.1s0.6-3.6,0.7-6.5l0.6-12.7H470.2z"/>
		<path d="M508.5,14.4H496v9.3h14.4v2.8h-18.2V0.4h18v2.8H496v8.4h12.4V14.4z"/>
		<path d="M550.6,3.2h-9.2v23.4h-3.8V3.2h-9.2V0.4h22.1V3.2z"/>
	</g>
</g>
</svg>
